<svg width="40" height="40" viewBox="0 0 40 40" fill="none" xmlns="http://www.w3.org/2000/svg">
  <path d="M20 36.6667C29.2048 36.6667 36.6667 29.2048 36.6667 20C36.6667 10.7953 29.2048 3.33334 20 3.33334C10.7953 3.33334 3.33334 10.7953 3.33334 20C3.33334 29.2048 10.7953 36.6667 20 36.6667Z" fill="#FF6B6B"/>
  <path d="M25 15C25 17.7614 22.7614 20 20 20C17.2386 20 15 17.7614 15 15C15 12.2386 17.2386 10 20 10C22.7614 10 25 12.2386 25 15Z" fill="white"/>
  <path d="M32 28.3333C32 32.0152 26.6274 35 20 35C13.3726 35 8 32.0152 8 28.3333C8 24.6514 13.3726 21.6667 20 21.6667C26.6274 21.6667 32 24.6514 32 28.3333Z" fill="white"/>
  <path d="M26.6667 15C26.6667 18.6819 23.6819 21.6667 20 21.6667C16.3181 21.6667 13.3333 18.6819 13.3333 15C13.3333 11.3181 16.3181 8.33334 20 8.33334C23.6819 8.33334 26.6667 11.3181 26.6667 15Z" stroke="white" stroke-width="2"/>
</svg>